<svg width="100" height="100" viewBox="0 0 100 100" fill="none" xmlns="http://www.w3.org/2000/svg">
<circle cx="50" cy="50" r="50" fill="#F3F3F9" fill-opacity="0.5"/>
<path d="M64.8605 34.6372H58.9587C58.798 34.6372 58.6439 34.7002 58.5303 34.8123C58.4166 34.9244 58.3528 35.0765 58.3528 35.235V64C58.3528 64.1585 58.4166 64.3106 58.5303 64.4227C58.6439 64.5348 58.798 64.5978 58.9587 64.5978H64.8605C65.0212 64.5978 65.1753 64.5348 65.289 64.4227C65.4026 64.3106 65.4665 64.1585 65.4665 64V35.235C65.4665 35.0765 65.4026 34.9244 65.289 34.8123C65.1753 34.7002 65.0212 34.6372 64.8605 34.6372ZM64.2546 63.3994H59.5647V35.8333H64.2546V63.3994ZM47.841 42.5328C47.6803 42.5328 47.5262 42.5958 47.4126 42.7079C47.2989 42.82 47.2351 42.972 47.2351 43.1306V64C47.2351 64.1585 47.2989 64.3106 47.4126 64.4227C47.5262 64.5348 47.6803 64.5978 47.841 64.5978H53.7428C53.9035 64.5978 54.0577 64.5348 54.1713 64.4227C54.2849 64.3106 54.3488 64.1585 54.3488 64V43.1306C54.3488 42.972 54.2849 42.82 54.1713 42.7079C54.0577 42.5958 53.9035 42.5328 53.7428 42.5328H47.841ZM53.1375 63.3994H48.447V43.7283H53.1375V63.3994ZM36.7234 48.7994C36.6439 48.7994 36.5651 48.8149 36.4917 48.8449C36.4183 48.8749 36.3515 48.9189 36.2953 48.9744C36.2391 49.0298 36.1945 49.0957 36.1641 49.1681C36.1336 49.2406 36.118 49.3182 36.118 49.3967V64C36.1179 64.0785 36.1335 64.1562 36.1639 64.2287C36.1943 64.3012 36.2389 64.3671 36.2951 64.4227C36.3513 64.4782 36.4181 64.5222 36.4916 64.5523C36.5651 64.5823 36.6438 64.5978 36.7234 64.5978H42.6229C42.7027 64.5981 42.7817 64.5828 42.8555 64.5529C42.9293 64.523 42.9963 64.479 43.0528 64.4235C43.1093 64.3679 43.1542 64.3019 43.1848 64.2293C43.2154 64.1566 43.2311 64.0787 43.2311 64V49.3967C43.2311 49.318 43.2154 49.2401 43.1848 49.1675C43.1542 49.0948 43.1093 49.0289 43.0528 48.9734C42.9963 48.9179 42.9292 48.874 42.8554 48.8441C42.7817 48.8143 42.7027 48.7991 42.6229 48.7994H36.7234ZM42.0198 63.3994H37.3293V49.9944H42.0198V63.3994ZM25.6063 64.595H31.5081C31.6682 64.595 31.8219 64.5324 31.9353 64.4209C32.0488 64.3093 32.1128 64.158 32.1134 64V53.5328C32.1135 53.4543 32.0979 53.3766 32.0675 53.3041C32.0371 53.2315 31.9925 53.1656 31.9363 53.1101C31.8801 53.0546 31.8133 53.0106 31.7399 52.9805C31.6664 52.9505 31.5876 52.935 31.5081 52.935H25.6063C25.4456 52.935 25.2914 52.998 25.1778 53.1101C25.0642 53.2222 25.0003 53.3742 25.0003 53.5328V64C25.0011 64.1581 25.0652 64.3094 25.1788 64.4209C25.2923 64.5324 25.446 64.595 25.6063 64.595ZM26.2116 54.13H30.9021V63.3994H26.2116V54.13ZM26.5067 48.0661C26.5465 48.1341 26.5994 48.1937 26.6625 48.2415C26.7255 48.2893 26.7976 48.3244 26.8744 48.3447C26.9512 48.365 27.0313 48.3702 27.1102 48.36C27.1891 48.3497 27.2651 48.3242 27.334 48.285L58.6771 30.4333L59.8862 32.5C59.9394 32.5909 60.0159 32.6664 60.108 32.7189C60.2002 32.7714 60.3047 32.799 60.4111 32.799C60.5175 32.799 60.622 32.7714 60.7141 32.7189C60.8063 32.6664 60.8828 32.5909 60.9359 32.5L65.3848 24.8972C65.4381 24.8064 65.4662 24.7033 65.4663 24.5983C65.4664 24.4933 65.4385 24.3902 65.3853 24.2992C65.3322 24.2083 65.2557 24.1328 65.1636 24.0802C65.0714 24.0277 64.9669 24 64.8605 24H55.9628C55.8564 24 55.7519 24.0276 55.6598 24.0801C55.5676 24.1325 55.4911 24.208 55.4379 24.2989C55.3847 24.3897 55.3567 24.4928 55.3567 24.5978C55.3567 24.7027 55.3847 24.8058 55.4379 24.8967L56.6453 26.9628L25.3033 44.8144C25.2343 44.8536 25.1738 44.9059 25.1253 44.9681C25.0768 45.0304 25.0412 45.1015 25.0206 45.1774C25 45.2532 24.9948 45.3324 25.0052 45.4102C25.0156 45.4881 25.0415 45.5631 25.0814 45.6311L26.5067 48.0661ZM57.7767 27.6989C57.9157 27.6196 58.0172 27.4892 58.0588 27.3361C58.1004 27.1831 58.0787 27.02 57.9986 26.8828L57.0108 25.195H63.8114L60.4111 31.0056L59.4239 29.3178C59.3434 29.1805 59.211 29.0804 59.0558 29.0395C58.9006 28.9985 58.7352 29.0201 58.5961 29.0994L27.2529 46.9511L26.4335 45.5511L57.7767 27.6989ZM74.3941 24H70.3737C70.294 23.9998 70.2151 24.0151 70.1414 24.045C70.0677 24.075 70.0008 24.119 69.9444 24.1745C69.888 24.2301 69.8432 24.296 69.8127 24.3687C69.7822 24.4413 69.7666 24.5192 69.7667 24.5978V68.8389H25.6063C25.5267 68.8388 25.4479 68.8542 25.3744 68.8842C25.3009 68.9142 25.2341 68.9582 25.1778 69.0136C25.1215 69.0691 25.0769 69.1349 25.0464 69.2074C25.016 69.2799 25.0003 69.3576 25.0003 69.4361V73.4022C25.0003 73.5608 25.0642 73.7128 25.1778 73.8249C25.2914 73.937 25.4456 74 25.6063 74H74.3941C74.5548 74 74.7089 73.937 74.8225 73.8249C74.9362 73.7128 75 73.5608 75 73.4022V24.5978C75 24.4392 74.9362 24.2872 74.8225 24.1751C74.7089 24.063 74.5548 24 74.3941 24ZM73.7887 72.805H26.2116V70.0339H70.3737C70.5344 70.0339 70.6886 69.9709 70.8022 69.8588C70.9158 69.7467 70.9797 69.5947 70.9797 69.4361V25.195H73.7887V72.805Z" fill="#09064E"/>
</svg>
