<svg width="100" height="100" viewBox="0 0 100 100" fill="none" xmlns="http://www.w3.org/2000/svg">
<circle cx="50" cy="50" r="50" fill="#F3F3F9" fill-opacity="0.5"/>
<!-- Monitor/Dashboard frame -->
<rect x="25" y="28" width="50" height="35" rx="3" stroke="#09064E" stroke-width="1.8" fill="none"/>
<!-- Monitor stand -->
<path d="M43 63h14M47 63v5h6v-5" stroke="#09064E" stroke-width="1.8" stroke-linecap="round" stroke-linejoin="round"/>
<!-- Bar chart inside monitor -->
<rect x="30" y="50" width="6" height="8" rx="1" stroke="#09064E" stroke-width="1.2" fill="none"/>
<rect x="38" y="44" width="6" height="14" rx="1" stroke="#09064E" stroke-width="1.2" fill="none"/>
<rect x="46" y="47" width="6" height="11" rx="1" stroke="#09064E" stroke-width="1.2" fill="none"/>
<rect x="54" y="40" width="6" height="18" rx="1" stroke="#09064E" stroke-width="1.2" fill="none"/>
<rect x="62" y="36" width="6" height="22" rx="1" stroke="#09064E" stroke-width="1.2" fill="none"/>
<!-- Trend line -->
<polyline points="33,48 41,42 49,45 57,38 65,34" stroke="#09064E" stroke-width="1.5" stroke-linecap="round" stroke-linejoin="round" fill="none"/>
<!-- Dot on trend line -->
<circle cx="65" cy="34" r="2" fill="#09064E"/>
<!-- Magnifying glass / analytics symbol -->
<circle cx="35" cy="36" r="4" stroke="#09064E" stroke-width="1.3" fill="none"/>
<line x1="38" y1="39" x2="41" y2="42" stroke="#09064E" stroke-width="1.3" stroke-linecap="round"/>
</svg>
