<svg width="100" height="100" viewBox="0 0 100 100" fill="none" xmlns="http://www.w3.org/2000/svg">
<circle cx="50" cy="50" r="50" fill="#F3F3F9" fill-opacity="0.5"/>
<!-- Gear 1 (large) -->
<path d="M52.5 30h-5l-0.8 3.2c-1.1 0.4-2.1 1-3 1.7l-3.1-1.1-2.5 4.3 2.3 2.2c-0.1 0.6-0.2 1.1-0.2 1.7s0.1 1.1 0.2 1.7l-2.3 2.2 2.5 4.3 3.1-1.1c0.9 0.7 1.9 1.3 3 1.7l0.8 3.2h5l0.8-3.2c1.1-0.4 2.1-1 3-1.7l3.1 1.1 2.5-4.3-2.3-2.2c0.1-0.6 0.2-1.1 0.2-1.7s-0.1-1.1-0.2-1.7l2.3-2.2-2.5-4.3-3.1 1.1c-0.9-0.7-1.9-1.3-3-1.7L52.5 30zM50 46c-2.8 0-5-2.2-5-5s2.2-5 5-5 5 2.2 5 5-2.2 5-5 5z" stroke="#09064E" stroke-width="1.8" fill="none"/>
<!-- Gear 2 (small) -->
<path d="M67 52h-3.5l-0.5 2.2c-0.7 0.3-1.4 0.7-2 1.2l-2.1-0.8-1.7 3 1.6 1.5c-0.1 0.4-0.1 0.8-0.1 1.2s0 0.8 0.1 1.2l-1.6 1.5 1.7 3 2.1-0.8c0.6 0.5 1.3 0.9 2 1.2l0.5 2.2H67l0.5-2.2c0.7-0.3 1.4-0.7 2-1.2l2.1 0.8 1.7-3-1.6-1.5c0.1-0.4 0.1-0.8 0.1-1.2s0-0.8-0.1-1.2l1.6-1.5-1.7-3-2.1 0.8c-0.6-0.5-1.3-0.9-2-1.2L67 52zM65.2 64.5c-1.9 0-3.5-1.6-3.5-3.5s1.6-3.5 3.5-3.5 3.5 1.6 3.5 3.5-1.6 3.5-3.5 3.5z" stroke="#09064E" stroke-width="1.5" fill="none"/>
<!-- Dollar sign / financial element -->
<path d="M35 55v15M31 58h8M31 66h8" stroke="#09064E" stroke-width="1.8" stroke-linecap="round"/>
<path d="M38 61c0-1.7-1.3-3-3-3s-3 1.3-3 3 1.3 3 3 3 3 1.3 3 3-1.3 3-3 3-3-1.3-3-3" stroke="#09064E" stroke-width="1.5" stroke-linecap="round" fill="none"/>
</svg>
