<svg width="100" height="100" viewBox="0 0 100 100" fill="none" xmlns="http://www.w3.org/2000/svg">
<circle cx="50" cy="50" r="50" fill="#F3F3F9" fill-opacity="0.5"/>
<path fill-rule="evenodd" clip-rule="evenodd" d="M63.9462 40.9127L66.4219 45.0242C66.6341 45.3764 66.5088 45.8267 66.1425 46.0302L63.8868 47.2787C64.099 47.962 64.253 48.6548 64.3487 49.3508C64.4455 50.0594 64.484 50.768 64.4631 51.4682L66.9773 52.1146C67.3875 52.2201 67.6317 52.6239 67.5217 53.0173L66.2404 57.6033C66.1304 57.9966 65.7092 58.2307 65.299 58.1252L62.7826 57.4788C62.4339 58.0989 62.0325 58.6936 61.5805 59.2578C61.135 59.8146 60.6401 60.3418 60.0979 60.8332L61.4001 62.996C61.6102 63.3471 61.4848 63.7953 61.1196 63.9977L61.1207 63.9988L56.8326 66.3725C56.4652 66.576 55.9956 66.4558 55.7833 66.1046C55.7756 66.0909 55.7679 66.0772 55.7602 66.0635L54.4822 63.9408C53.7685 64.1454 53.0459 64.2919 52.3189 64.3837C51.5798 64.4765 50.8419 64.5134 50.1105 64.4934L49.4363 66.9039C49.3263 67.2973 48.9051 67.5314 48.4948 67.4259L43.7117 66.1974C43.3015 66.092 43.0573 65.6881 43.1673 65.2948L43.8415 62.8821C43.1948 62.5468 42.5745 62.1629 41.9861 61.7295C41.4054 61.3024 40.8555 60.8279 40.3441 60.3081L38.0884 61.5566C37.7221 61.758 37.2547 61.6378 37.0435 61.2877L37.0424 61.2887L34.5668 57.1773C34.3545 56.8251 34.4799 56.3748 34.8461 56.1713C34.8604 56.1639 34.8747 56.1565 34.889 56.1491L37.1029 54.9238C36.8896 54.2394 36.7367 53.5466 36.641 52.8496C36.5442 52.141 36.5057 51.4334 36.5266 50.7322L34.0124 50.0858C33.6022 49.9803 33.3581 49.5764 33.468 49.1831L34.7493 44.5971C34.8593 44.2038 35.2805 43.9697 35.6908 44.0751L38.2071 44.7215C38.5569 44.1015 38.9572 43.5068 39.4093 42.9426C39.8547 42.3858 40.3485 41.8596 40.8907 41.3682L39.5896 39.2076C39.3774 38.8554 39.5027 38.4051 39.869 38.2016L44.1572 35.8279C44.5245 35.6244 44.9941 35.7446 45.2064 36.0958C45.2141 36.1095 45.2218 36.1232 45.2295 36.1369L46.5075 38.2596C47.2213 38.055 47.9438 37.9084 48.6708 37.8167C49.4099 37.7239 50.1479 37.687 50.8792 37.707L51.5523 35.2964C51.6623 34.9031 52.0835 34.669 52.4938 34.7745L57.2769 36.003C57.6871 36.1084 57.9313 36.5123 57.8213 36.9056L57.1471 39.3183C57.7938 39.6536 58.4141 40.0375 59.0025 40.4709C59.5832 40.8979 60.1331 41.3725 60.6456 41.8923L62.9013 40.6438C63.2676 40.4424 63.735 40.5626 63.9462 40.9127ZM26.3566 27.2211C25.931 27.2211 25.5867 27.5512 25.5867 27.9593V50.4401H23.7687V50.4422C23.6379 50.4422 23.5048 50.4738 23.3838 50.5413C23.0165 50.7448 22.8911 51.1961 23.1045 51.5473L27.3805 58.6483L27.3816 58.6472C27.4465 58.7558 27.5422 58.8497 27.6632 58.9161C28.0305 59.1186 28.4991 58.9973 28.7102 58.6451L32.9489 51.6053C33.038 51.4851 33.0908 51.3375 33.0908 51.1782C33.0908 50.7701 32.7466 50.4401 32.3209 50.4401H30.9044V32.3196H52.3948C52.5917 32.3196 52.7885 32.2479 52.9392 32.1034L56.7127 28.4854C56.8546 28.3515 56.9425 28.1649 56.9425 27.9593C56.9425 27.5512 56.5983 27.2211 56.1727 27.2211H26.3566ZM54.3151 28.6974H27.1265V51.1782C27.1265 51.5863 26.7822 51.9164 26.3566 51.9164H25.0995L28.0448 56.8082L30.9901 51.9164H30.1345C29.7089 51.9164 29.3646 51.5863 29.3646 51.1782V31.5815C29.3646 31.1734 29.7089 30.8433 30.1345 30.8433H52.0758L54.3151 28.6974ZM73.6081 43.5553L73.607 43.5563C73.5421 43.4477 73.4464 43.3539 73.3254 43.2874C72.9581 43.085 72.4896 43.2062 72.2784 43.5584L68.0397 50.5982C67.9506 50.7185 67.8978 50.8661 67.8978 51.0253C67.8978 51.4334 68.2421 51.7635 68.6677 51.7635H70.0832V69.8829H48.5927C48.3959 69.8829 48.199 69.9546 48.0483 70.0991L44.2748 73.717C44.133 73.851 44.045 74.0376 44.045 74.2432C44.045 74.6513 44.3892 74.9814 44.8149 74.9814H74.6309C75.0565 74.9814 75.4008 74.6513 75.4008 74.2432V51.7635H77.2199V51.7614C77.3507 51.7614 77.4838 51.7297 77.6048 51.6622C77.9721 51.4587 78.0975 51.0074 77.8842 50.6562L73.6081 43.5553ZM75.888 50.2872L72.9427 45.3954L69.9974 50.2872H70.853C71.2787 50.2872 71.6229 50.6172 71.6229 51.0253V70.621C71.6229 71.0291 71.2787 71.3592 70.853 71.3592H48.9117L46.6735 73.5051H73.861V51.0253C73.861 50.6172 74.2053 50.2872 74.6309 50.2872H75.888ZM68.2696 26C67.8439 26 67.4997 26.3301 67.4997 26.7381V27.6397C67.2412 27.7104 66.9883 27.7958 66.743 27.8928C66.4923 27.993 66.2492 28.1048 66.0149 28.2292L65.3495 27.5912C65.0493 27.3034 64.561 27.3034 64.2607 27.5912L62.5824 29.2004C62.2822 29.4883 62.2822 29.9565 62.5824 30.2443L63.2478 30.8823C63.118 31.1069 63.0014 31.3389 62.8969 31.5793C62.7947 31.8156 62.7067 32.057 62.633 32.3048H61.6926C61.267 32.3048 60.9228 32.6349 60.9228 33.043V35.3186C60.9228 35.7267 61.267 36.0567 61.6926 36.0567H62.633C62.7067 36.3045 62.7958 36.5471 62.8969 36.7822C63.0014 37.0227 63.118 37.2557 63.2478 37.4803L62.5824 38.1183C62.2822 38.4062 62.2822 38.8744 62.5824 39.1622L64.2618 40.7714C64.5621 41.0593 65.0504 41.0593 65.3506 40.7714L66.016 40.1334C66.2503 40.2579 66.4923 40.3696 66.743 40.4698C66.9894 40.5679 67.2412 40.6522 67.4997 40.7229V41.6245H67.503C67.503 42.0305 67.8461 42.3595 68.2696 42.3595H70.643C71.0664 42.3595 71.4095 42.0305 71.4095 41.6245V40.7239C71.6691 40.6522 71.9221 40.5679 72.1695 40.4698C72.4203 40.3696 72.6633 40.2579 72.8976 40.1334L73.563 40.7714C73.8632 41.0593 74.3515 41.0593 74.6518 40.7714L76.3301 39.1622C76.6304 38.8744 76.6304 38.4062 76.3301 38.1183L75.6647 37.4814C75.7945 37.2568 75.9111 37.0248 76.0156 36.7843C76.1179 36.5481 76.2069 36.3045 76.2806 36.0557H77.1517C77.1737 36.0578 77.1968 36.0588 77.2199 36.0588C77.6455 36.0588 77.9897 35.7288 77.9897 35.3207V33.044C77.9897 32.6359 77.6455 32.3059 77.2199 32.3059H76.2806C76.2058 32.056 76.1179 31.8134 76.0156 31.5772H76.0145C75.9111 31.3379 75.7945 31.1059 75.6647 30.8823L76.3301 30.2443C76.6304 29.9565 76.6304 29.4883 76.3301 29.2004L74.6518 27.5912C74.3515 27.3034 73.8632 27.3034 73.563 27.5912L72.8976 28.2292C72.6633 28.1048 72.4214 27.993 72.1695 27.8928C71.9243 27.7948 71.6713 27.7104 71.4128 27.6397V26.7381C71.4128 26.3301 71.0686 26 70.643 26H68.2696ZM69.8731 27.4763H69.0394V28.2197H69.0372C69.0372 28.5677 68.7799 28.8767 68.4103 28.9431C68.0331 29.0116 67.6702 29.116 67.3259 29.2531C66.9916 29.386 66.6715 29.5505 66.3702 29.7445C66.0677 29.9691 65.6322 29.948 65.355 29.6823L64.8062 29.1561L64.2167 29.7213L64.7655 30.2475L64.7644 30.2486C65.0207 30.4943 65.0669 30.8876 64.8557 31.185C64.6424 31.4855 64.462 31.804 64.3179 32.1382C64.1815 32.4546 64.0749 32.7867 64.0034 33.1316C63.9572 33.4975 63.6327 33.7811 63.239 33.7811H62.4636V34.5804H63.239V34.5826C63.6019 34.5826 63.9242 34.8293 63.9935 35.1836C64.065 35.5453 64.1738 35.8933 64.3168 36.2233C64.4554 36.5439 64.627 36.8508 64.8293 37.1397C65.0636 37.4297 65.0416 37.8473 64.7644 38.113L64.2156 38.6392L64.8051 39.2044L65.3539 38.6782L65.355 38.6793C65.6113 38.4336 66.0215 38.3893 66.3317 38.5917C66.6451 38.7963 66.9773 38.9693 67.3259 39.1074C67.6559 39.2382 68.0023 39.3404 68.3619 39.409C68.7436 39.4533 69.0394 39.7643 69.0394 40.1419V40.8884H69.8764V40.1819C69.8555 39.8181 70.1184 39.487 70.5022 39.4174C70.8794 39.3489 71.2424 39.2445 71.5866 39.1074C71.921 38.9745 72.241 38.81 72.5424 38.616C72.8448 38.3914 73.2803 38.4125 73.5575 38.6782L74.1063 39.2044L74.6958 38.6392L74.147 38.113L74.1481 38.112C73.8918 37.8663 73.8456 37.4729 74.0568 37.1756C74.2702 36.875 74.4505 36.5566 74.5946 36.2223C74.7376 35.8922 74.8465 35.5443 74.918 35.1826H74.9191C74.985 34.8409 75.2974 34.5826 75.6724 34.5826H76.45V33.7801H75.6746C75.3117 33.7801 74.9894 33.5333 74.9202 33.179C74.8498 32.8215 74.7398 32.4736 74.5968 32.1414H74.5979L74.5968 32.1393C74.4582 31.8187 74.2867 31.5129 74.0843 31.2229C73.85 30.9329 73.8709 30.5154 74.1492 30.2496L74.698 29.7234L74.1085 29.1582L73.5597 29.6844L73.5586 29.6834C73.3023 29.9291 72.8921 29.9733 72.5819 29.7709C72.2685 29.5663 71.9352 29.3934 71.5877 29.2552C71.2578 29.1245 70.9113 29.0232 70.5517 28.9547C70.17 28.9104 69.8742 28.5993 69.8742 28.2218V27.4763H69.8731ZM69.4563 29.6507C68.1519 29.6507 66.9696 30.1579 66.115 30.9783C65.2594 31.7987 64.7303 32.9312 64.7303 34.1818C64.7303 35.4325 65.2594 36.5661 66.115 37.3854C66.9707 38.2058 68.1519 38.713 69.4563 38.713V38.7099C72.0639 38.7099 74.1789 36.6821 74.1789 34.1818C74.1789 32.9291 73.651 31.7966 72.7975 30.9783C71.943 30.1579 70.7617 29.6507 69.4563 29.6507ZM69.4563 31.127C68.5764 31.127 67.7801 31.4686 67.2038 32.0212C66.6275 32.5737 66.2712 33.3372 66.2712 34.1808C66.2712 35.0244 66.6275 35.7878 67.2038 36.3404C67.7801 36.893 68.5764 37.2346 69.4563 37.2346V37.2378C71.2171 37.2378 72.6446 35.869 72.6446 34.1808C72.6446 33.3393 72.2872 32.5758 71.7087 32.0212C71.1324 31.4686 70.3361 31.127 69.4563 31.127ZM32.3539 60.0676C31.9437 59.9622 31.5225 60.1963 31.4125 60.5896L31.1826 61.4132C30.9286 61.4184 30.6745 61.4374 30.4226 61.4691C30.1675 61.5017 29.9156 61.5471 29.6682 61.6061L29.2469 60.906C29.2392 60.8922 29.2326 60.8785 29.2238 60.8648C29.0116 60.5126 28.5409 60.3924 28.1746 60.597L26.1861 61.6979C25.8188 61.9014 25.6934 62.3527 25.9068 62.7039L26.3511 63.442C26.174 63.6181 26.0069 63.8037 25.8507 63.9998C25.6967 64.1918 25.5537 64.3932 25.4218 64.603L24.5617 64.3816C24.1515 64.2761 23.7303 64.5102 23.6203 64.9036L23.0264 67.0305C22.9164 67.4238 23.1605 67.8277 23.5708 67.9331L24.4297 68.1535C24.4352 68.3971 24.455 68.6407 24.488 68.8822C24.5221 69.1268 24.5694 69.3683 24.631 69.6056L23.8611 70.0316C23.4938 70.234 23.3673 70.6833 23.5785 71.0355L24.7036 72.904C24.7113 72.9177 24.7179 72.9314 24.7267 72.9451C24.939 73.2973 25.4097 73.4176 25.7759 73.213L26.5458 72.787C26.7295 72.9567 26.923 73.117 27.1276 73.2668C27.3278 73.4144 27.5378 73.5515 27.7567 73.678L27.5257 74.5026C27.4157 74.896 27.6599 75.2998 28.0701 75.4053L30.2885 75.9747C30.6987 76.0802 31.1199 75.8461 31.2299 75.4527L31.4598 74.6292C31.7138 74.6239 31.9679 74.6049 32.2197 74.5733C32.4749 74.5406 32.7257 74.4953 32.9731 74.4373L33.4196 75.1775C33.6319 75.5297 34.1026 75.6499 34.4689 75.4454L36.4573 74.3445C36.8247 74.1409 36.9501 73.6896 36.7367 73.3385L36.2924 72.6003C36.4694 72.4242 36.6366 72.2386 36.7928 72.0436C36.9468 71.8516 37.0897 71.6502 37.2217 71.4404L38.0818 71.6618C38.492 71.7673 38.9132 71.5332 39.0232 71.1398L39.6171 69.0129C39.7271 68.6196 39.4829 68.2157 39.0727 68.1103L38.2137 67.8899C38.2082 67.6463 38.1885 67.4027 38.1555 67.1612C38.1214 66.9166 38.0741 66.6751 38.0125 66.4378L38.7428 66.034C38.7571 66.0266 38.7714 66.0203 38.7857 66.0118C39.153 65.8083 39.2784 65.357 39.065 65.0058L37.9168 63.0993C37.7045 62.7471 37.2338 62.6269 36.8676 62.8315L36.0977 63.2575C35.914 63.0877 35.7194 62.9274 35.5159 62.7777C35.3157 62.6301 35.1057 62.493 34.8868 62.3664L35.1178 61.5418C35.2277 61.1485 34.9836 60.7446 34.5734 60.6392L32.3539 60.0676ZM33.4317 61.8708L32.6993 61.6821L32.5156 62.339C32.4287 62.6828 32.0922 62.9264 31.7116 62.899C31.3388 62.8726 30.9736 62.8821 30.6217 62.9274C30.2588 62.9728 29.9035 63.055 29.5604 63.17V63.1689C29.2194 63.2838 28.8301 63.1531 28.6431 62.841L28.2802 62.2378L27.6203 62.6026L27.9832 63.2058C28.1647 63.5053 28.1042 63.8965 27.8216 64.1317C27.5477 64.3584 27.2959 64.6125 27.0726 64.892C26.8592 65.1577 26.6723 65.4456 26.515 65.7535C26.3676 66.0856 25.9838 66.2712 25.6098 66.1763L24.9082 65.996L24.7113 66.6983L25.3965 66.8744C25.755 66.9577 26.0091 67.2804 25.9805 67.6452C25.953 68.0027 25.9629 68.3528 26.0102 68.6903C26.0575 69.0382 26.1433 69.3788 26.2631 69.7078H26.262C26.3819 70.0347 26.2455 70.408 25.92 70.5873L25.2898 70.9363L25.6703 71.569L26.3005 71.22C26.6129 71.046 27.0209 71.104 27.2662 71.375C27.5026 71.6376 27.7677 71.8791 28.0591 72.0931C28.3363 72.2977 28.6365 72.477 28.9577 72.6277C29.3041 72.769 29.4977 73.1371 29.3987 73.4956L29.2106 74.1694L29.9431 74.3582L30.1268 73.7012C30.2137 73.3575 30.5502 73.1139 30.9308 73.1413C31.3036 73.1676 31.6687 73.1582 32.0207 73.1128C32.3737 73.0685 32.7202 72.9894 33.0556 72.8798C33.4031 72.749 33.8068 72.8777 33.9992 73.1972L34.3633 73.8025L35.0221 73.4376L34.6591 72.8344C34.4777 72.5349 34.5382 72.1437 34.8208 71.9086C35.0947 71.6819 35.3465 71.4277 35.5698 71.1483C35.7832 70.8826 35.9701 70.5947 36.1274 70.2868C36.2748 69.9546 36.6586 69.7679 37.0325 69.8639L37.7353 70.0442L37.9322 69.3419L37.247 69.1658C36.8885 69.0825 36.6344 68.7598 36.663 68.395C36.6905 68.0375 36.6806 67.6874 36.6333 67.35C36.586 67.0031 36.5002 66.6614 36.3804 66.3324H36.3815C36.2616 66.0055 36.3979 65.6322 36.7235 65.4529L37.3526 65.105L36.9721 64.4723L36.343 64.8202C36.0306 64.9942 35.6226 64.9362 35.3773 64.6652C35.1409 64.4027 34.8758 64.1612 34.5843 63.9471C34.3072 63.7426 34.0069 63.5633 33.6869 63.4125C33.3405 63.2712 33.1458 62.9032 33.2459 62.5446L33.4317 61.8708ZM32.5574 63.7774C32.5277 63.7679 32.4969 63.7594 32.465 63.7531C31.2563 63.4547 30.0322 63.6487 29.0259 64.2055C28.0184 64.7633 27.2299 65.6828 26.8944 66.8354C26.8845 66.8639 26.8757 66.8944 26.8691 66.924C26.5579 68.0829 26.7602 69.2565 27.3421 70.2214C27.9239 71.1873 28.8829 71.9434 30.085 72.265C30.1147 72.2745 30.1466 72.2829 30.1774 72.2892C31.3861 72.5877 32.6102 72.3936 33.6165 71.8358C34.6239 71.278 35.4125 70.3585 35.748 69.2059C35.7579 69.1774 35.7667 69.1468 35.7733 69.1173C36.0801 67.9753 35.8876 66.8185 35.3256 65.8621C35.3179 65.8473 35.3091 65.8315 35.3003 65.8167C34.7196 64.8529 33.7606 64.099 32.5574 63.7774ZM33.9707 66.556C33.5791 65.9064 32.9291 65.3992 32.1131 65.1893C31.2948 64.9795 30.4666 65.106 29.7891 65.4814C29.1139 65.8558 28.5859 66.479 28.3671 67.2625V67.2635C28.1482 68.0481 28.2802 68.8421 28.6717 69.4917C29.0622 70.1391 29.7111 70.6453 30.5282 70.8551H30.5293C31.3476 71.065 32.1757 70.9384 32.8532 70.563C33.5285 70.1887 34.0564 69.5655 34.2753 68.782V68.7809C34.4909 68.0112 34.3666 67.2319 33.9926 66.5897C33.9849 66.5781 33.9773 66.5665 33.9707 66.556ZM64.7083 45.1233L63.0003 42.2857L60.9074 43.4445C60.5906 43.6417 60.1639 43.5901 59.9098 43.3085C59.3511 42.6864 58.7341 42.1296 58.0699 41.6414C57.4023 41.15 56.6885 40.7292 55.9417 40.3812C55.5953 40.2399 55.4006 39.8719 55.5007 39.5123L56.1364 37.2378L52.8391 36.391L52.2034 38.6656C52.111 39.0009 51.78 39.236 51.4061 39.2107C50.5603 39.1506 49.709 39.1717 48.8688 39.2782C48.0406 39.3826 47.2158 39.5693 46.4063 39.8403V39.8392C46.0653 39.9542 45.676 39.8234 45.489 39.5113L44.2616 37.4729L41.302 39.1116L42.5294 41.15C42.7109 41.4494 42.6504 41.8407 42.3678 42.0758C41.7189 42.6115 41.1382 43.2031 40.6289 43.84C40.1164 44.4801 39.6776 45.1644 39.3147 45.8804C39.1673 46.2126 38.7835 46.3992 38.4084 46.3033L36.0361 45.6938L35.153 48.8552L37.5253 49.4647C37.875 49.5532 38.1203 49.8706 38.0939 50.2292C38.0312 51.0411 38.0532 51.8563 38.1643 52.6619C38.2731 53.4559 38.4678 54.2468 38.7505 55.0229H38.7494C38.8692 55.3498 38.7329 55.7231 38.4073 55.9024L36.2814 57.0792L37.9905 59.9179L40.0834 58.759C40.4002 58.5618 40.8269 58.6135 41.081 58.895C41.6397 59.5172 42.2567 60.0729 42.921 60.5611C43.5886 61.0525 44.3023 61.4743 45.0491 61.8213C45.3956 61.9626 45.5902 62.3306 45.4901 62.6902L44.8544 64.9647L48.1517 65.8115L48.7874 63.5369C48.8798 63.2016 49.2108 62.9664 49.5848 62.9917C50.4316 63.0519 51.2818 63.0308 52.122 62.9243C52.9491 62.8199 53.7751 62.6332 54.5845 62.3622V62.3633C54.9255 62.2483 55.3148 62.3791 55.5018 62.6912L56.7292 64.7296L59.6899 63.0909L58.4812 61.0842C58.2755 60.7805 58.3294 60.3713 58.6231 60.1277C59.272 59.5921 59.8527 59.0005 60.3619 58.3636C60.8744 57.7235 61.3132 57.0391 61.6762 56.3231C61.8235 55.9909 62.2074 55.8043 62.5824 55.9003L64.9547 56.5098L65.8379 53.3484L63.4656 52.7389C63.1158 52.6503 62.8706 52.3329 62.8969 51.9744C62.9596 51.1624 62.9376 50.3473 62.8266 49.5406C62.7188 48.756 62.5274 47.9747 62.2503 47.2059C62.1139 46.8727 62.2481 46.4847 62.5802 46.3001L64.7083 45.1233ZM54.3305 50.8819C54.3668 51.4745 54.2524 52.0661 54.0016 52.6039C53.6838 53.2883 53.1438 53.8872 52.4124 54.2922C51.4929 54.8015 50.447 54.9048 49.499 54.6612C48.5487 54.4176 47.6964 53.8261 47.1663 52.9445L47.1652 52.9424C46.635 52.0608 46.5273 51.058 46.7813 50.149C47.0354 49.2379 47.6524 48.4207 48.5718 47.9124C48.5883 47.904 48.6037 47.8956 48.6202 47.8871C49.3384 47.5022 50.1292 47.3609 50.8891 47.4379C51.5017 47.4991 52.0934 47.7005 52.6104 48.0263L55.9428 46.181C54.8716 45.0885 53.488 44.3672 52.0077 44.0741C50.2721 43.7303 48.4047 43.9707 46.7505 44.886L46.7516 44.8871C44.9622 45.8783 43.7601 47.4706 43.2641 49.2443C42.7681 51.0201 42.9771 52.9761 44.0098 54.6918C45.0414 56.4054 46.7032 57.5569 48.5542 58.0325C50.4052 58.508 52.4454 58.3077 54.2337 57.3186L54.2326 57.3175C55.8856 56.4022 57.0371 54.9723 57.5936 53.361C58.0699 51.9818 58.1116 50.4717 57.6618 49.0376L54.3305 50.8819ZM52.6005 52.0039C52.4091 52.4162 52.0857 52.7758 51.6491 53.0173C51.0981 53.322 50.469 53.3842 49.896 53.2366C49.3395 53.0942 48.8391 52.7526 48.5201 52.2454C48.5058 52.219 48.4904 52.1926 48.4739 52.1673C48.1759 51.6485 48.1176 51.0622 48.2672 50.5276C48.4157 49.994 48.772 49.5142 49.301 49.2084C49.334 49.1926 49.3648 49.1747 49.3945 49.1557C49.8179 48.9353 50.2842 48.8562 50.7341 48.9016C51.2125 48.9501 51.6711 49.1409 52.0374 49.4573C52.3002 49.684 52.6818 49.7051 52.9667 49.53L57.5034 47.0182C57.8708 46.8147 57.9962 46.3634 57.7828 46.0122C57.7619 45.9774 57.7388 45.9458 57.7135 45.9152C56.3607 44.1795 54.4196 43.0481 52.3167 42.6315C50.2293 42.2171 47.9801 42.5081 45.9873 43.6112L45.9851 43.6122L45.984 43.6112C43.8272 44.8048 42.3788 46.7251 41.7816 48.8625C41.1855 50.9947 41.4373 53.3473 42.6779 55.4131L42.6933 55.4384C43.9405 57.4999 45.9378 58.8845 48.1605 59.455C50.3843 60.0265 52.838 59.785 54.9926 58.5956L55.0047 58.5892L55.0058 58.5903C56.9997 57.4862 58.3877 55.7632 59.0586 53.8208C59.7361 51.8594 59.6789 49.6713 58.7737 47.6699C58.6066 47.2977 58.1545 47.1258 57.7663 47.2861C57.7388 47.2977 57.7113 47.3103 57.686 47.3251L57.6849 47.324L53.1185 49.8517C52.8237 50.0151 52.6851 50.3388 52.7522 50.6415C52.8534 51.1055 52.7962 51.5831 52.6005 52.0039Z" fill="#09064E"/>
</svg>
