<svg width="100" height="100" viewBox="0 0 100 100" fill="none" xmlns="http://www.w3.org/2000/svg">
<circle cx="50" cy="50" r="50" fill="#F3F3F9" fill-opacity="0.5"/>
<path d="M73.9225 24.0002H26.0729C24.377 24.0002 23 25.352 23 27.0115V64.4823C23 65.7796 23.8454 66.8859 25.0224 67.3101L23.4531 69.6963C22.6026 70.9912 22.9848 72.7225 24.3061 73.556C24.7693 73.8487 25.2983 74 25.84 74C26.0425 74 26.2475 73.9777 26.45 73.9355C27.1941 73.7768 27.832 73.3451 28.2446 72.7225L31.6819 67.496H73.9271C75.623 67.496 77 66.1442 77 64.4847L76.9975 27.0114C76.9975 25.3494 75.6184 24.0002 73.9225 24.0002ZM30.761 66.3523L27.063 71.9756C26.6301 72.633 25.7341 72.8239 25.0634 72.3998C24.3926 71.9756 24.1977 71.0975 24.6305 70.4402L28.3286 64.8169C28.6019 64.4026 29.0601 64.1744 29.5284 64.1695H29.5334C29.5385 64.1695 29.541 64.167 29.5461 64.167C29.8144 64.167 30.0852 64.2389 30.3282 64.3927C30.5687 64.544 30.7459 64.7549 30.8572 64.993C30.8572 64.9955 30.8598 64.998 30.8598 64.998C31.0572 65.4246 31.0369 65.9331 30.761 66.3523ZM32.2468 61.4756C30.2219 60.1956 28.8247 58.2211 28.3159 55.9118C27.8071 53.6049 28.245 51.241 29.5511 49.2543C31.2749 46.6349 34.1806 45.2061 37.1474 45.2061C38.8205 45.2061 40.5113 45.6601 42.0199 46.6126C44.0448 47.8925 45.442 49.867 45.9508 52.1763C46.4596 54.4832 46.0217 56.8472 44.7156 58.8338C43.4096 60.8182 41.3947 62.1874 39.0407 62.686C36.6842 63.1846 34.2715 62.7555 32.2468 61.4756ZM31.4875 62.6315C31.6191 62.7158 31.7532 62.7952 31.8874 62.8721L31.4596 63.522C31.3457 63.4203 31.2217 63.3235 31.0875 63.2392C30.9534 63.1549 30.8116 63.0854 30.6699 63.0259L31.0977 62.376C31.2242 62.4603 31.3533 62.5472 31.4875 62.6315ZM75.5956 64.482C75.5956 65.3849 74.8464 66.1216 73.9225 66.1216L32.3376 66.1191C32.4237 65.6825 32.4009 65.2336 32.2769 64.8119L33.1476 63.4873C34.4081 64.0008 35.7497 64.2637 37.1089 64.2637C37.848 64.2637 38.5922 64.1868 39.3313 64.0306C42.0523 63.4526 44.3811 61.8725 45.8896 59.5805C49.0029 54.8452 47.6057 48.5123 42.7737 45.4617C37.9417 42.4106 31.4793 43.7799 28.3664 48.5152C26.8579 50.8097 26.3516 53.5407 26.9414 56.2071C27.3945 58.2659 28.4627 60.0941 30.0016 61.5005L29.1283 62.8275C28.3437 62.9416 27.6096 63.3708 27.1464 64.0727L25.815 66.0993C25.0151 65.9777 24.4001 65.3006 24.4001 64.482L24.4026 27.0112C24.4026 26.1083 25.1518 25.3716 26.0757 25.3716H73.9253C74.8467 25.3716 75.5984 26.1058 75.5984 27.0112L75.5956 64.482ZM73.3732 51.1594H69.6094C69.2221 51.1594 68.9082 51.467 68.9082 51.8465V63.257H68.1591V56.7507C68.1591 56.3712 67.8452 56.0636 67.4579 56.0636H63.6941C63.3068 56.0636 62.993 56.3712 62.993 56.7507V63.257H62.2438L62.2412 54.9892C62.2412 54.6097 61.9274 54.3021 61.5401 54.3021H57.7762C57.389 54.3021 57.0751 54.6097 57.0751 54.9892V63.257H56.3259V58.5019C56.3259 58.1224 56.0121 57.8148 55.6248 57.8148H51.8609C51.4737 57.8148 51.1598 58.1224 51.1598 58.5019V63.257H50.4106L50.4081 49.5598C50.4081 49.1803 50.0942 48.8727 49.707 48.8727C49.3197 48.8727 49.0059 49.1803 49.0059 49.5598V63.9441C49.0059 64.3236 49.3197 64.6312 49.707 64.6312H73.3732C73.7605 64.6312 74.0743 64.3236 74.0743 63.9441V51.8465C74.0743 51.467 73.7605 51.1594 73.3732 51.1594ZM54.9232 63.257H52.5617V59.189H54.9232V63.257ZM60.8386 63.257H58.477V55.6763H60.8386V63.257ZM66.7565 63.257H64.3949V57.4377H66.7565V63.257ZM72.6719 63.257H70.3103V52.5336H72.6719V63.257ZM49.9698 32.5606C51.5721 32.5606 52.8781 31.2831 52.8781 29.7104C52.8781 28.1402 51.5746 26.8603 49.9698 26.8603C48.3675 26.8603 47.0615 28.1378 47.0615 29.7104C47.0615 30.4893 47.3829 31.1962 47.9018 31.7122L43.7912 38.3227C43.5153 38.2383 43.2242 38.1912 42.9204 38.1912C42.6166 38.1912 42.3256 38.2358 42.0496 38.3227L37.939 31.7122C38.4579 31.1962 38.7793 30.4893 38.7793 29.7104C38.7793 28.1402 37.4758 26.8603 35.871 26.8603C34.2687 26.8603 32.9627 28.1378 32.9627 29.7104C32.9627 30.4893 33.2841 31.1962 33.803 31.7122L29.6924 38.3227C29.4165 38.2383 29.1254 38.1912 28.8216 38.1912C27.2193 38.1912 25.9133 39.4686 25.9133 41.0413C25.9133 42.6115 27.2168 43.8914 28.8216 43.8914C30.4239 43.8914 31.7299 42.614 31.7299 41.0413C31.7299 40.2624 31.4085 39.5555 30.8896 39.0396L35.0002 32.4291C35.2761 32.5134 35.5672 32.5606 35.871 32.5606C36.1748 32.5606 36.4658 32.5159 36.7418 32.4291L40.8524 39.0396C40.3335 39.5555 40.0121 40.2625 40.0121 41.0413C40.0121 42.6115 41.3156 43.8914 42.9204 43.8914C44.5252 43.8914 45.8287 42.614 45.8287 41.0413C45.8287 40.2624 45.5073 39.5555 44.9884 39.0396L49.099 32.4291C49.3749 32.5159 49.666 32.5606 49.9698 32.5606ZM49.9698 28.237C50.8 28.237 51.4758 28.8993 51.4758 29.7129C51.4758 30.5265 50.8 31.1888 49.9698 31.1888C49.1396 31.1888 48.4638 30.5265 48.4638 29.7129C48.4638 28.8993 49.1396 28.237 49.9698 28.237ZM28.8294 42.5172C27.9992 42.5172 27.3233 41.8548 27.3233 41.0413C27.3233 40.2277 27.9992 39.5654 28.8294 39.5654C29.6596 39.5654 30.3354 40.2277 30.3354 41.0413C30.3329 41.8548 29.6596 42.5172 28.8294 42.5172ZM34.3701 29.7128C34.3701 28.8992 35.046 28.2369 35.8762 28.2369C36.7064 28.2369 37.3822 28.8992 37.3822 29.7128C37.3822 30.5264 36.7064 31.1887 35.8762 31.1887C35.046 31.1862 34.3701 30.5264 34.3701 29.7128ZM42.9229 42.5172C42.0927 42.5172 41.4168 41.8548 41.4168 41.0413C41.4168 40.2277 42.0927 39.5654 42.9229 39.5654C43.7531 39.5654 44.4289 40.2277 44.4289 41.0413C44.4289 41.8548 43.7531 42.5172 42.9229 42.5172ZM55.427 33.4854H59.8869C60.2742 33.4854 60.588 33.1778 60.588 32.7983V28.4276C60.588 28.0481 60.2742 27.7406 59.8869 27.7406H55.427C55.0397 27.7406 54.7259 28.0481 54.7259 28.4276V32.7983C54.7259 33.1778 55.0397 33.4854 55.427 33.4854ZM56.1281 29.1172H59.1858V32.1137H56.1281V29.1172ZM74.074 30.6155C74.074 30.995 73.7601 31.3025 73.3728 31.3025H62.6481C62.2608 31.3025 61.947 30.995 61.947 30.6155C61.947 30.2359 62.2608 29.9284 62.6481 29.9284H73.3754C73.7602 29.9259 74.074 30.2335 74.074 30.6155ZM55.427 41.0214H59.8869C60.2742 41.0214 60.588 40.7138 60.588 40.3343V35.9637C60.588 35.5841 60.2742 35.2766 59.8869 35.2766H55.427C55.0397 35.2766 54.7259 35.5842 54.7259 35.9637V40.3343C54.7259 40.7138 55.0397 41.0214 55.427 41.0214ZM56.1281 36.6507H59.1858V39.6472H56.1281V36.6507ZM74.074 38.149C74.074 38.5285 73.7601 38.8361 73.3728 38.8361H62.6481C62.2608 38.8361 61.947 38.5285 61.947 38.149C61.947 37.7695 62.2608 37.4619 62.6481 37.4619H73.3754C73.7602 37.4619 74.074 37.7695 74.074 38.149ZM55.427 48.5549H59.8869C60.2742 48.5549 60.588 48.2473 60.588 47.8678V43.4972C60.588 43.1177 60.2742 42.8101 59.8869 42.8101H55.427C55.0397 42.8101 54.7259 43.1177 54.7259 43.4972V47.8678C54.7259 48.2474 55.0397 48.5549 55.427 48.5549ZM56.1281 44.1843H59.1858V47.1808H56.1281V44.1843ZM74.074 45.6825C74.074 46.062 73.7601 46.3696 73.3728 46.3696H62.6481C62.2608 46.3696 61.947 46.062 61.947 45.6825C61.947 45.303 62.2608 44.9954 62.6481 44.9954H73.3754C73.7602 44.9954 74.074 45.303 74.074 45.6825Z" fill="#09064E"/>
</svg>
