<svg width="100" height="100" viewBox="0 0 100 100" fill="none" xmlns="http://www.w3.org/2000/svg">
<circle cx="50" cy="50" r="50" fill="#F3F3F9"/>
<path d="M48.7977 58.025C55.5318 58.025 61.0025 52.5488 61.0025 45.8081C60.3302 29.6001 37.2649 29.6119 36.5929 45.8081C36.5929 52.5489 42.0636 58.025 48.7977 58.025ZM48.7977 34.7629C54.8827 34.7629 59.8438 39.717 59.8438 45.82C59.2411 60.485 38.3546 60.485 37.7523 45.82C37.7523 39.7289 42.7008 34.7629 48.7977 34.7629ZM54.2105 41.9098L55.1493 41.2253C56.7372 43.3832 57.0734 46.3534 56.0302 48.8132L54.9639 48.3723C55.8447 46.2724 55.555 43.7545 54.2105 41.9098ZM47.9052 39.1949L47.7545 38.0463C49.7945 37.7679 52.0199 38.3596 53.6773 39.6822L52.9587 40.5872C51.5331 39.4502 49.6786 38.9513 47.9168 39.1949H47.9052ZM27.9115 52.1433H29.0706V58.4316H27.9115V52.1433ZM29.0706 49.5444H27.9115V45.8201H29.0706V49.5444ZM27.9115 43.0704H29.0706V38.9168H31.1453V33.6031H25.8369V38.9168H27.9116L27.9115 43.0704ZM26.9843 34.7629H29.9746V37.7562H26.9843V34.7629ZM27.4595 61.0649H37.1726V62.2252H27.4595V61.0649ZM76.7661 69.8016L66.0678 58.3621L64.6422 59.708V54.2202H68.7337C69.4523 57.2135 73.8567 56.7494 73.9031 53.6401C73.8567 50.5307 69.4523 50.0666 68.7337 53.06H64.8624C65.5578 51.5053 66.0446 49.8462 66.2648 48.0943H68.7336C69.4522 51.0876 73.8566 50.6235 73.903 47.5142C73.8567 44.4048 69.4522 43.9407 68.7336 46.9341H66.3691C66.5198 45.275 66.3459 43.5579 65.9866 41.9684H68.7336C69.4522 44.9733 73.8566 44.4976 73.903 41.3883C73.8566 38.2789 69.4522 37.8148 68.7336 40.8082H65.6968C65.4186 39.88 65.0593 38.9982 64.6537 38.1397V33.348C64.6537 31.7237 63.3324 30.3895 61.6981 30.3895H58.1745V27.6746C61.1648 26.9553 60.7012 22.5465 57.595 22.5C54.4887 22.5464 54.0251 26.9552 57.0155 27.6746V30.2271C55.3116 29.3221 53.4456 28.7072 51.4751 28.4171V27.6746C54.4654 26.9553 54.0018 22.5465 50.8956 22.5C47.7893 22.5464 47.3257 26.9552 50.3161 27.6746V28.2663C48.4731 28.0807 46.5375 28.2547 44.7757 28.6724V27.6746C47.766 26.9552 47.3024 22.5465 44.1962 22.5C41.0899 22.5464 40.6263 26.9552 43.6167 27.6746V28.974C42.4576 29.3337 41.3565 29.8094 40.3017 30.3894H38.0763V27.6746C41.0667 26.9552 40.603 22.5465 37.4968 22.5C34.3905 22.5464 33.9269 26.9552 36.9173 27.6746V30.3894H25.7554C24.1327 30.3894 22.7998 31.712 22.7998 33.348V64.7661C22.7998 66.3904 24.1211 67.7246 25.7554 67.7246H61.8721L69.8694 76.2868C71.3182 77.8299 73.7407 77.9111 75.2822 76.4724L76.5919 75.2542C78.1219 73.8736 78.2146 71.3095 76.7774 69.836L76.7661 69.8016ZM71.2722 52.1664C73.1846 52.2012 73.1846 55.0553 71.2722 55.0902C69.3597 55.0553 69.3597 52.2012 71.2722 52.1664ZM71.2722 46.0405C73.1846 46.0753 73.1846 48.9294 71.2722 48.9642C69.3597 48.9294 69.3597 46.0753 71.2722 46.0405ZM71.2722 39.9262C73.1962 39.961 73.1846 42.8151 71.2722 42.8499C69.3597 42.8151 69.3597 39.961 71.2722 39.9262ZM49.4121 25.1104C49.4469 23.1961 52.2982 23.1961 52.3329 25.1104C52.2982 27.0247 49.4469 27.0247 49.4121 25.1104ZM42.7244 25.1104C42.7591 23.1961 45.6104 23.1961 45.6452 25.1104C45.6104 27.0247 42.7591 27.0247 42.7244 25.1104ZM36.025 25.1104C36.0598 23.1961 38.9111 23.1961 38.9459 25.1104C38.9111 27.0247 36.0598 27.0247 36.025 25.1104ZM63.4716 33.3362V36.0743C62.3009 34.3108 60.8173 32.7793 59.1019 31.5379H61.6751C62.6603 31.5379 63.4716 32.3384 63.4716 33.3362ZM56.1115 25.1104C56.1463 23.1961 58.9976 23.1961 59.0323 25.1104C58.9976 27.0247 56.1463 27.0247 56.1115 25.1104ZM65.2564 45.8204C65.2564 54.9046 57.8732 62.2958 48.7974 62.2958C26.9603 61.3908 26.9722 30.2391 48.7974 29.3458C57.8725 29.3458 65.2564 36.7356 65.2564 45.8204ZM25.7438 66.5416C24.7586 66.5416 23.9472 65.7411 23.9472 64.7432V33.3251C23.9472 32.339 24.747 31.5268 25.7438 31.5268H38.4938C30.4616 37.0842 28.7229 49.2778 35.0978 56.8539H31.5511V58.0141H36.1294C43.698 66.159 57.537 64.8361 63.4832 55.5312V60.7638L59.1715 64.8013L60.7826 66.5184H25.7445L25.7438 66.5416ZM75.7922 74.3731L74.4824 75.5913C73.4393 76.5891 71.6659 76.5426 70.7039 75.4637L60.8053 64.8707L66.0095 59.9978L75.908 70.5908C76.9164 71.6234 76.8468 73.4101 75.7805 74.3731L75.7922 74.3731Z" fill="#09064E"/>
</svg>
