<svg width="100" height="100" viewBox="0 0 100 100" fill="none" xmlns="http://www.w3.org/2000/svg">
<circle cx="50" cy="50" r="50" fill="#F3F3F9" fill-opacity="0.5"/>
<path d="M66.67 28.85H57.1C57.223 28.1376 57.19 27.407 57.0033 26.7086C56.8167 26.0102 56.4808 25.3605 56.0188 24.8045C55.5568 24.2484 54.9798 23.7991 54.3274 23.4876C53.675 23.1761 52.9629 23.0097 52.24 23H48.36C47.6371 23.0097 46.925 23.1761 46.2726 23.4876C45.6202 23.7991 45.0432 24.2484 44.5812 24.8045C44.1192 25.3605 43.7833 26.0102 43.5967 26.7086C43.41 27.407 43.377 28.1376 43.5 28.85H33.93C33.4189 28.8526 32.9296 29.0568 32.5682 29.4182C32.2068 29.7796 32.0026 30.2689 32 30.78V75.07C32 75.5819 32.2033 76.0728 32.5653 76.4347C32.9272 76.7967 33.4181 77 33.93 77H66.67C67.1819 77 67.6728 76.7967 68.0347 76.4347C68.3967 76.0728 68.6 75.5819 68.6 75.07V30.78C68.5974 30.2689 68.3932 29.7796 68.0318 29.4182C67.6704 29.0568 67.1811 28.8526 66.67 28.85ZM45.43 27.85C45.43 27.0729 45.7387 26.3277 46.2882 25.7782C46.8377 25.2287 47.5829 24.92 48.36 24.92H52.24C53.0171 24.92 53.7623 25.2287 54.3118 25.7782C54.8613 26.3277 55.17 27.0729 55.17 27.85V28.85H45.43V27.85ZM33.93 75.07V30.78H66.67V75.07H33.93Z" fill="#09064E"/>
<path d="M49.4701 42.84H37.5301C37.3223 42.9006 37.1399 43.0269 37.0101 43.2C36.8802 43.3731 36.8101 43.5836 36.8101 43.8C36.8101 44.0164 36.8802 44.2269 37.0101 44.4C37.1399 44.5731 37.3223 44.6994 37.5301 44.76H49.4701C49.6778 44.6994 49.8602 44.5731 49.9901 44.4C50.1199 44.2269 50.1901 44.0164 50.1901 43.8C50.1901 43.5836 50.1199 43.3731 49.9901 43.2C49.8602 43.0269 49.6778 42.9006 49.4701 42.84Z" fill="#09064E"/>
<path d="M61.9801 38.3L58.3001 42.45L56.7001 41.08C56.5027 40.99 56.2813 40.9666 56.0694 41.0134C55.8576 41.0602 55.6667 41.1747 55.5255 41.3395C55.3844 41.5043 55.3007 41.7106 55.2871 41.9271C55.2735 42.1437 55.3307 42.3588 55.4501 42.54L57.7701 44.54C57.9655 44.6969 58.2126 44.7746 58.4626 44.758C58.7126 44.7413 58.9473 44.6314 59.1201 44.45L63.4201 39.59C63.5203 39.3935 63.5527 39.1693 63.5123 38.9524C63.4718 38.7355 63.3608 38.5381 63.1965 38.3909C63.0321 38.2437 62.8237 38.155 62.6037 38.1385C62.3837 38.1221 62.1645 38.1789 61.9801 38.3Z" fill="#09064E"/>
<path d="M49.47 53.47H37.53C37.3181 53.5276 37.1311 53.6532 36.9978 53.8276C36.8645 54.002 36.7922 54.2155 36.7922 54.435C36.7922 54.6545 36.8645 54.868 36.9978 55.0424C37.1311 55.2167 37.3181 55.3424 37.53 55.4H49.47C49.6818 55.3424 49.8688 55.2167 50.0022 55.0424C50.1355 54.868 50.2077 54.6545 50.2077 54.435C50.2077 54.2155 50.1355 54.002 50.0022 53.8276C49.8688 53.6532 49.6818 53.5276 49.47 53.47Z" fill="#09064E"/>
<path d="M61.9801 48.94L58.3001 53.08L56.7001 51.71C56.5014 51.6168 56.2777 51.5916 56.0633 51.6381C55.8489 51.6846 55.6557 51.8004 55.5136 51.9675C55.3715 52.1347 55.2882 52.3439 55.2768 52.563C55.2653 52.7821 55.3262 52.9989 55.4501 53.18L57.7701 55.18C57.9667 55.3356 58.2145 55.4117 58.4646 55.3932C58.7146 55.3746 58.9485 55.2629 59.1201 55.08L63.4201 50.23C63.5203 50.0334 63.5527 49.8093 63.5122 49.5924C63.4718 49.3755 63.3608 49.1781 63.1964 49.0309C63.0321 48.8837 62.8237 48.7949 62.6037 48.7785C62.3837 48.7621 62.1644 48.8188 61.9801 48.94Z" fill="#09064E"/>
<path d="M49.4701 64.11H37.5301C37.3223 64.1706 37.1399 64.2969 37.0101 64.47C36.8802 64.6431 36.8101 64.8536 36.8101 65.07C36.8101 65.2864 36.8802 65.4969 37.0101 65.67C37.1399 65.8431 37.3223 65.9694 37.5301 66.03H49.4701C49.6778 65.9694 49.8602 65.8431 49.9901 65.67C50.1199 65.4969 50.1901 65.2864 50.1901 65.07C50.1901 64.8536 50.1199 64.6431 49.9901 64.47C49.8602 64.2969 49.6778 64.1706 49.4701 64.11Z" fill="#09064E"/>
<path d="M61.9801 59.57L58.3001 63.72L56.7001 62.35C56.5027 62.26 56.2813 62.2366 56.0694 62.2834C55.8576 62.3302 55.6667 62.4447 55.5255 62.6095C55.3844 62.7743 55.3007 62.9806 55.2871 63.1971C55.2735 63.4137 55.3307 63.6288 55.4501 63.81L57.7701 65.81C57.9655 65.9668 58.2126 66.0446 58.4626 66.028C58.7126 66.0113 58.9473 65.9014 59.1201 65.72L63.4201 60.86C63.5203 60.6635 63.5527 60.4393 63.5123 60.2224C63.4718 60.0055 63.3608 59.8081 63.1965 59.6609C63.0321 59.5137 62.8237 59.425 62.6037 59.4085C62.3837 59.3921 62.1645 59.4488 61.9801 59.57Z" fill="#09064E"/>
</svg>
