<svg width="100" height="100" viewBox="0 0 100 100" fill="none" xmlns="http://www.w3.org/2000/svg">
<circle cx="50" cy="50" r="50" fill="#F3F3F9" fill-opacity="0.5"/>
<path d="M70.005 29.9912C63.345 23.3406 52.5157 23.332 45.8642 29.9912C42.6413 33.2137 40.8647 37.4988 40.8647 42.0601C40.8647 45.7111 42.0164 49.1746 44.1233 52.0672L40.7754 55.4147C40.0969 54.7363 38.9184 54.7363 38.2399 55.4147L25.5267 68.1264C25.1875 68.4656 25 68.9119 25 69.394C25 69.876 25.1875 70.3223 25.5267 70.6616L29.3389 74.4733C29.6782 74.8125 30.1246 75 30.6067 75C31.0888 75 31.5352 74.8125 31.8745 74.4733L44.5876 61.7617C44.9269 61.4225 45.1144 60.9761 45.1144 60.494C45.1144 60.012 44.9269 59.5657 44.5876 59.2264L47.9355 55.87C50.9085 58.0302 54.4173 59.1282 57.9347 59.1282C62.3092 59.1282 66.675 57.4679 70.005 54.1382C76.665 47.479 76.665 36.6509 70.005 30.0003L70.005 29.9912ZM43.3199 60.494L30.5976 73.2056L26.7854 69.385L39.5077 56.6734L43.3199 60.4851V60.494ZM43.3199 57.9588L42.0432 56.6823L45.2572 53.4687C45.4626 53.6918 45.65 53.9239 45.8643 54.1382C46.0786 54.3524 46.3107 54.5399 46.5339 54.7452L43.3199 57.9588ZM68.7462 52.8706C62.7913 58.8248 53.087 58.8339 47.1321 52.8706C44.2484 49.9873 42.6593 46.1486 42.6593 42.0603C42.6593 37.972 44.2484 34.1425 47.1321 31.2499C50.114 28.2684 54.0241 26.7777 57.9437 26.7777C61.8634 26.7777 65.7733 28.2685 68.7554 31.2499C74.7103 37.2041 74.7103 46.9073 68.7554 52.8615L68.7462 52.8706Z" fill="#09064E"/>
<path d="M67.4601 32.5358C62.2017 27.2779 53.6579 27.2868 48.3996 32.5358C43.15 37.7936 43.15 46.3363 48.3996 51.5941C50.944 54.1382 54.3276 55.5397 57.9256 55.5397C61.5235 55.5397 64.9072 54.1382 67.4516 51.5941C72.7011 46.3452 72.7011 37.7935 67.4516 32.5358H67.4601ZM66.2013 50.3269C63.9962 52.5318 61.0589 53.7548 57.9341 53.7548C54.8092 53.7548 51.8723 52.5408 49.6668 50.3269C45.1136 45.7654 45.1136 38.3563 49.6668 33.7944C51.9434 31.518 54.9431 30.3754 57.9341 30.3754C60.925 30.3754 63.9244 31.518 66.2013 33.7944C70.7545 38.3559 70.7545 45.765 66.2013 50.3269Z" fill="#09064E"/>
<path d="M66.6929 37.4896C66.4697 37.0522 65.925 36.8826 65.4876 37.1147C65.0501 37.3379 64.8805 37.8824 65.1126 38.3198C66.3357 40.6676 66.3357 43.4616 65.1126 45.8091C64.8894 46.2465 65.0501 46.7821 65.4876 47.0143C65.6215 47.0857 65.7643 47.1125 65.8983 47.1125C66.2197 47.1125 66.5322 46.9339 66.6928 46.6304C68.1838 43.7739 68.1838 40.3553 66.6929 37.4896Z" fill="#09064E"/>
</svg>
